<?xml version="1.0" ?><!DOCTYPE svg  PUBLIC '-//W3C//DTD SVG 1.1//EN'  'http://www.w3.org/Graphics/SVG/1.1/DTD/svg11.dtd'><svg viewBox="0 0 640 512" xmlns="http://www.w3.org/2000/svg" xmlns:xlink="http://www.w3.org/1999/xlink"><style>:root>svg{display:none}:root>svg:target{display:block}</style><svg viewBox="0 0 32 32" id="app_question_help_icon" xmlns="http://www.w3.org/2000/svg"><g fill="none" stroke="#000" stroke-linejoin="round" stroke-miterlimit="10" stroke-width="2"><circle cx="16" cy="16" r="15"/><path d="M16 24v2M16 22v-2.615c0-1.441.877-2.736 2.215-3.271h0A4.43 4.43 0 0021 12v0a5 5 0 00-5-5h0a5 5 0 00-5 5v0"/></g></svg><svg viewBox="0 0 10 7" id="arrow_down_drop_icon" xmlns="http://www.w3.org/2000/svg"><path d="M0 .5l5 5 5-5H0z" fill-rule="evenodd"/></svg><svg viewBox="0 0 96 96" id="arrow_navigation_icon" xmlns="http://www.w3.org/2000/svg"><path d="M39.376 48.002l30.47-25.39a6.003 6.003 0 00-7.688-9.223L26.156 43.391a6.01 6.01 0 000 9.223l36.002 30.001a6.003 6.003 0 007.688-9.223z"/></svg><svg viewBox="0 0 32 32" id="banknote_icon" xmlns="http://www.w3.org/2000/svg"><g clip-rule="evenodd" fill="#333" fill-rule="evenodd"><path d="M31.415 10.586l-10-10a2.002 2.002 0 00-3.326.822c-.453 1.469-1.236 2.746-2.395 3.904-1.548 1.547-3.564 2.719-5.697 3.958-2.264 1.312-4.603 2.672-6.52 4.588C1.848 15.489.739 17.303.089 19.409a2.002 2.002 0 00.496 2.006l10 10a2.002 2.002 0 003.326-.824c.454-1.469 1.237-2.746 2.397-3.904 1.547-1.547 3.562-2.717 5.697-3.955 2.262-1.314 4.602-2.674 6.518-4.59 1.629-1.629 2.738-3.445 3.389-5.551a2.004 2.004 0 00-.497-2.005zM12 30L2 20c2.842-9.201 15.16-8.799 18-18l10.002 10C27.159 21.199 14.841 20.799 12 30z"/><path d="M19.562 14.9c-.326-.273-.654-.459-.984-.551a2.864 2.864 0 00-.988-.105 3.54 3.54 0 00-1 .229 13.73 13.73 0 00-1.014.438 56.818 56.818 0 00-1.611-1.793c.242-.219.477-.33.703-.338.227-.01.445.014.652.066.211.053.404.098.582.133a.538.538 0 00.473-.119.664.664 0 00.236-.482c.01-.197-.064-.389-.229-.576a1.293 1.293 0 00-.77-.443 2.377 2.377 0 00-.93.021c-.316.072-.617.191-.902.359s-.514.34-.684.508l-.195-.184a.376.376 0 00-.27-.1.35.35 0 00-.273.133.36.36 0 00-.092.285.36.36 0 00.127.252c.065.055.13.109.195.166-.256.309-.467.65-.633 1.01a3.376 3.376 0 00-.305 1.066c-.039.35-.002.67.105.967.107.299.305.553.594.793.471.391 1.025.557 1.668.52.641-.039 1.332-.23 2.075-.629.59.682 1.182 1.359 1.773 1.988-.25.211-.469.332-.662.371a1.035 1.035 0 01-.521-.01 1.657 1.657 0 01-.434-.209 3.048 3.048 0 00-.395-.234c-.129-.064-.262-.1-.398-.102s-.281.064-.441.201c-.164.143-.246.309-.246.496 0 .186.086.375.254.566.17.191.391.352.658.479s.569.207.901.229a2.5 2.5 0 001.051-.164c.371-.135.738-.379 1.1-.742.174.17.35.332.525.488a.36.36 0 00.273.088.363.363 0 00.27-.141.386.386 0 00.094-.293.341.341 0 00-.125-.244 13.1 13.1 0 01-.527-.445c.299-.367.539-.754.717-1.137.178-.385.283-.756.318-1.1a1.965 1.965 0 00-.119-.941c-.112-.287-.311-.533-.596-.77zm-5.591.678a.971.971 0 01-.746-.291.733.733 0 01-.195-.322 1.004 1.004 0 01-.039-.418c.014-.15.059-.307.137-.465.074-.158.184-.316.324-.469a35.667 35.667 0 011.52 1.629c-.384.211-.718.324-1.001.336zm4.717 2.002c-.09.166-.193.314-.314.443a40.863 40.863 0 01-1.68-1.826c.143-.064.293-.131.455-.199s.324-.113.486-.141c.166-.025.33-.018.494.021.162.041.316.129.459.268.141.141.23.287.266.445.039.16.041.322.014.488a1.612 1.612 0 01-.18.501zM14.717 22.18h-.002a17.95 17.95 0 00-1.8 1.553 14.612 14.612 0 00-1.461 1.699l-.684.934.002.002a.503.503 0 00.066.627.504.504 0 00.71 0 .47.47 0 00.074-.1l.639-.875c.396-.541.854-1.074 1.361-1.58a15.86 15.86 0 011.714-1.475l-.002-.002c.018-.014.035-.025.051-.041a.5.5 0 00-.668-.742zM18.378 7.715c-.523.523-1.09.994-1.678 1.443a.506.506 0 00-.117.801c.191.193.5.197.699.014l.004.002c.625-.48 1.234-.988 1.799-1.553a14.693 14.693 0 001.461-1.697l.684-.938-.002-.002a.504.504 0 00-.738-.684.545.545 0 00-.088.123l-.664.91a13.514 13.514 0 01-1.36 1.581z"/></g></svg><svg viewBox="0 0 448 512" id="book-solid" xmlns="http://www.w3.org/2000/svg"><!--! Font Awesome Pro 6.2.0 by @fontawesome - https://fontawesome.com License - https://fontawesome.com/license (Commercial License) Copyright 2022 Fonticons, Inc.--><path d="M96 0C43 0 0 43 0 96v320c0 53 43 96 96 96h320c17.7 0 32-14.3 32-32s-14.3-32-32-32v-64c17.7 0 32-14.3 32-32V32c0-17.7-14.3-32-32-32H96zm0 384h256v64H96c-17.7 0-32-14.3-32-32s14.3-32 32-32zm32-240c0-8.8 7.2-16 16-16h192c8.8 0 16 7.2 16 16s-7.2 16-16 16H144c-8.8 0-16-7.2-16-16zm16 48h192c8.8 0 16 7.2 16 16s-7.2 16-16 16H144c-8.8 0-16-7.2-16-16s7.2-16 16-16z"/></svg><svg fill="#34bf49" viewBox="0 0 512 512" id="checkmark_round_icon" xmlns="http://www.w3.org/2000/svg"><path d="M448 71.9c-17.3-13.4-41.5-9.3-54.1 9.1L214 344.2l-99.1-107.3c-14.6-16.6-39.1-17.4-54.7-1.8-15.6 15.5-16.4 41.6-1.7 58.1 0 0 120.4 133.6 137.7 147 17.3 13.4 41.5 9.3 54.1-9.1l206.3-301.7c12.6-18.5 8.7-44.2-8.6-57.5z"/></svg><svg viewBox="0 0 512 512" id="close_round_icon" xmlns="http://www.w3.org/2000/svg"><path d="M437.5 386.6L306.9 256l130.6-130.6c14.1-14.1 14.1-36.8 0-50.9-14.1-14.1-36.8-14.1-50.9 0L256 205.1 125.4 74.5c-14.1-14.1-36.8-14.1-50.9 0-14.1 14.1-14.1 36.8 0 50.9L205.1 256 74.5 386.6c-14.1 14.1-14.1 36.8 0 50.9 14.1 14.1 36.8 14.1 50.9 0L256 306.9l130.6 130.6c14.1 14.1 36.8 14.1 50.9 0 14-14.1 14-36.9 0-50.9z"/></svg><svg viewBox="0 0 512 512" id="coins_icon" xmlns="http://www.w3.org/2000/svg"><path d="M0 405.3V448c0 35.25 85.1 64 192 64 105.1 0 192-28.75 192-64v-42.75C342.8 434.4 267.2 448 192 448S41.25 434.4 0 405.3zM320 128c105.1 0 192-28.75 192-64S426 0 320 0C213.1 0 128 28.75 128 64s85.1 64 192 64zM0 300.4V352c0 35.25 85.1 64 192 64 105.1 0 192-28.75 192-64v-51.6c-41.2 34-116.9 51.6-192 51.6S41.25 334.4 0 300.4zm416 11c57.3-11.2 96-31.6 96-55.4v-42.8c-23.25 16.5-57.25 27.63-96 34.5v63.7zM192 160C85.1 160 0 195.8 0 240s85.1 80 192 80c105.1 0 192-35.75 192-80s-86.9-80-192-80zm219.2 56.2c60.1-10.7 100.8-32 100.8-56.2v-42.8c-35.5 25.13-96.5 38.63-160.8 41.88 29.6 14.32 51.3 33.52 60 57.12z"/></svg><svg class="ibi ibi-grid-3x3-gap-fill" viewBox="0 0 16 16" id="grid_gap_fill_icon" xmlns="http://www.w3.org/2000/svg"><path d="M1 2a1 1 0 011-1h2a1 1 0 011 1v2a1 1 0 01-1 1H2a1 1 0 01-1-1V2zm5 0a1 1 0 011-1h2a1 1 0 011 1v2a1 1 0 01-1 1H7a1 1 0 01-1-1V2zm5 0a1 1 0 011-1h2a1 1 0 011 1v2a1 1 0 01-1 1h-2a1 1 0 01-1-1V2zM1 7a1 1 0 011-1h2a1 1 0 011 1v2a1 1 0 01-1 1H2a1 1 0 01-1-1V7zm5 0a1 1 0 011-1h2a1 1 0 011 1v2a1 1 0 01-1 1H7a1 1 0 01-1-1V7zm5 0a1 1 0 011-1h2a1 1 0 011 1v2a1 1 0 01-1 1h-2a1 1 0 01-1-1V7zM1 12a1 1 0 011-1h2a1 1 0 011 1v2a1 1 0 01-1 1H2a1 1 0 01-1-1v-2zm5 0a1 1 0 011-1h2a1 1 0 011 1v2a1 1 0 01-1 1H7a1 1 0 01-1-1v-2zm5 0a1 1 0 011-1h2a1 1 0 011 1v2a1 1 0 01-1 1h-2a1 1 0 01-1-1v-2z"/></svg><svg viewBox="0 0 32 32" id="hamburger_list_menu_more_navigation_icon" xmlns="http://www.w3.org/2000/svg"><path d="M29 16a2 2 0 01-2 2H11a2 2 0 010-4h16a2 2 0 012 2zM29 6a2 2 0 01-2 2H11a2 2 0 010-4h16a2 2 0 012 2zM29 26a2 2 0 01-2 2H11a2 2 0 010-4h16a2 2 0 012 2zM3 6c0 1.103.897 2 2 2s2-.897 2-2-.897-2-2-2-2 .897-2 2zM3 16c0 1.103.897 2 2 2s2-.897 2-2-.897-2-2-2-2 .897-2 2zM3 26c0 1.103.897 2 2 2s2-.897 2-2-.897-2-2-2-2 .897-2 2z"/></svg><svg viewBox="0 0 576 512" id="home_icon" xmlns="http://www.w3.org/2000/svg"><path d="M280.37 148.26L96 300.11V464a16 16 0 0016 16l112.06-.29a16 16 0 0015.92-16V368a16 16 0 0116-16h64a16 16 0 0116 16v95.64a16 16 0 0016 16.05L464 480a16 16 0 0016-16V300L295.67 148.26a12.19 12.19 0 00-15.3 0zM571.6 251.47L488 182.56V44.05a12 12 0 00-12-12h-56a12 12 0 00-12 12v72.61L318.47 43a48 48 0 00-61 0L4.34 251.47a12 12 0 00-1.6 16.9l25.5 31A12 12 0 0045.15 301l235.22-193.74a12.19 12.19 0 0115.3 0L530.9 301a12 12 0 0016.9-1.6l25.5-31a12 12 0 00-1.7-16.93z"/></svg><svg viewBox="0 0 85 85" id="info_icon" xmlns="http://www.w3.org/2000/svg"><path d="M42.5.003C19.028.003 0 19.031 0 42.503s19.028 42.5 42.5 42.5S85 65.976 85 42.503 65.972.003 42.5.003zm-.212 66.267s-1.972 1.311-3.32 1.305l-.191.087.003-.087a4.316 4.316 0 01-.855-.125l-.426-.105c-2.354-.584-3.6-2.918-3.014-5.271l3.277-13.211 1.479-5.967c1.376-5.54-4.363 1.178-5.54-1.374-.777-1.687 4.464-5.227 8.293-7.896 0 0 1.97-1.309 3.319-1.304.121-.056.192-.087.192-.087l-.005.087c.285.013.57.053.857.124l.426.106a4.39 4.39 0 013.204 5.318l-3.276 13.212-1.482 5.967c-1.374 5.54 4.27-1.204 5.446 1.351.777 1.685-4.559 5.201-8.387 7.87zm8.306-41.294a6.147 6.147 0 11-11.933-2.961 6.147 6.147 0 0111.933 2.961z"/></svg><svg viewBox="0 0 512 512" id="medal-solid" xmlns="http://www.w3.org/2000/svg"><!--! Font Awesome Pro 6.2.0 by @fontawesome - https://fontawesome.com License - https://fontawesome.com/license (Commercial License) Copyright 2022 Fonticons, Inc.--><path d="M16 0h128c5.3 0 10.3 2.7 13.3 7.1l81.1 121.6c-49.5 4.1-94 25.6-127.6 58.3L2.7 24.9C-.6 20-.9 13.7 1.9 8.5S10.1 0 16 0zm493.3 24.9L401.2 187.1c-33.5-32.7-78.1-54.2-127.6-58.3L354.7 7.1c3-4.5 8-7.1 13.3-7.1h128c5.9 0 11.3 3.2 14.1 8.5s2.5 11.5-.8 16.4zM432 336c0 97.2-78.8 176-176 176S80 433.2 80 336s78.8-176 176-176 176 78.8 176 176zm-167.6-94.9c-3.4-7-13.3-7-16.8 0l-22.4 45.4c-1.4 2.8-4 4.7-7 5.1l-50.2 7.3c-7.7 1.1-10.7 10.5-5.2 16l36.3 35.4c2.2 2.2 3.2 5.2 2.7 8.3l-8.6 49.9c-1.3 7.6 6.7 13.5 13.6 9.9l44.8-23.6c2.7-1.4 6-1.4 8.7 0l44.8 23.6c6.9 3.6 14.9-2.2 13.6-9.9l-8.6-49.9c-.5-3 .5-6.1 2.7-8.3l36.3-35.4c5.6-5.4 2.5-14.8-5.2-16l-50.1-7.3c-3-.4-5.7-2.4-7-5.1l-22.4-45.4z"/></svg><svg viewBox="0 0 96 96" id="medal_icon" xmlns="http://www.w3.org/2000/svg"><path d="M51.63 40.44q.49.12 1 .27h.15a.51.51 0 00.48-.35.51.51 0 00-.33-.63l-1-.29a.51.51 0 00-.61.37.49.49 0 00.31.63zM37.47 44.12a.47.47 0 00.34-.13c.25-.23.5-.44.75-.65a.5.5 0 00.08-.7.51.51 0 00-.71-.08l-.8.69a.5.5 0 000 .71.48.48 0 00.34.16zM46.67 40.06h1a.5.5 0 00.49-.51.49.49 0 00-.52-.49q-.52 0-1 .06a.5.5 0 000 1zM37.15 65.35a.51.51 0 00-.71 0 .5.5 0 000 .71c.25.25.5.5.76.74a.53.53 0 00.34.13.54.54 0 00.37-.16.51.51 0 000-.71c-.3-.23-.53-.47-.76-.71zM41.73 41.32a.78.78 0 00.21 0c.3-.14.6-.26.91-.38a.49.49 0 00.3-.64.5.5 0 00-.64-.3l-1 .4a.5.5 0 00-.25.66.49.49 0 00.47.26zM33 51a.51.51 0 00-.6.37c-.07.35-.14.69-.2 1a.5.5 0 00.41.57h.08a.5.5 0 00.5-.42c0-.33.11-.65.19-1A.5.5 0 0033 51zM32.53 56.07a.49.49 0 00-.45.54c0 .36.08.71.14 1a.49.49 0 00.49.42h.09a.5.5 0 00.41-.57c-.06-.33-.1-.65-.13-1a.5.5 0 00-.55-.39zM35.13 46.34a.51.51 0 00-.69.16c-.19.3-.36.6-.53.92a.49.49 0 00.2.67.53.53 0 00.24.06.49.49 0 00.44-.26c.16-.29.32-.58.5-.86a.5.5 0 00-.16-.69zM56.16 42.41q.42.27.81.57a.49.49 0 00.3.1.48.48 0 00.4-.2.5.5 0 00-.1-.7c-.28-.21-.57-.41-.86-.61a.51.51 0 00-.7.15.5.5 0 00.15.69zM34.37 61.28a.49.49 0 00-.66-.25.51.51 0 00-.25.66c.15.32.31.64.48 1a.51.51 0 00.44.26.53.53 0 00.24-.06.51.51 0 00.2-.68c-.16-.34-.31-.63-.45-.93zM60.39 46.54a.5.5 0 00.41.22.47.47 0 00.28-.09.5.5 0 00.14-.69c-.2-.29-.41-.58-.63-.85a.5.5 0 00-.79.61c.2.26.4.53.59.8zM62.11 61.45a.43.43 0 00.19 0 .5.5 0 00.46-.31c.14-.32.26-.65.38-1a.5.5 0 00-.31-.63.5.5 0 00-.64.31c-.11.31-.22.62-.35.93a.49.49 0 00.27.7zM62.47 51a.5.5 0 00.48.37h.13a.51.51 0 00.35-.62c-.09-.34-.2-.68-.31-1a.5.5 0 10-.95.33c.11.3.21.62.3.92zM63 55v1a.49.49 0 00.46.53.5.5 0 00.5-.46V54.94a.47.47 0 00-.5-.46.52.52 0 00-.46.52zM42 68.75c-.3-.13-.6-.28-.9-.43a.5.5 0 00-.67.21.51.51 0 00.21.68c.32.16.63.31 1 .45a.46.46 0 00.2 0 .52.52 0 00.46-.3.5.5 0 00-.3-.61zM59.58 65.8a.49.49 0 00.37-.16c.24-.27.46-.54.68-.82a.5.5 0 00-.79-.61c-.2.26-.41.51-.63.76a.49.49 0 00.37.83zM46.78 70c-.33 0-.66-.06-1-.11a.5.5 0 10-.14 1q.51.08 1.05.12a.5.5 0 000-1zM51.7 69.54c-.32.08-.65.15-1 .21a.5.5 0 00-.4.58.49.49 0 00.49.41h.09c.35-.07.69-.14 1-.23a.5.5 0 00.36-.61.49.49 0 00-.54-.36zM56.21 67.56c-.27.18-.56.35-.85.51a.49.49 0 00-.18.68.49.49 0 00.43.26.45.45 0 00.25-.07c.3-.17.61-.36.9-.55a.5.5 0 00-.55-.83zM57.94 51.07l-6.56-1-2.93-5.95a.52.52 0 00-.9 0l-2.93 5.95-6.56 1a.51.51 0 00-.41.34.53.53 0 00.13.52l4.75 4.62-1.12 6.53a.49.49 0 00.2.49.47.47 0 00.52 0L48 60.53l5.87 3.08a.46.46 0 00.23.06.45.45 0 00.29-.1.47.47 0 00.2-.49l-1.12-6.53 4.75-4.62a.53.53 0 00.13-.52.51.51 0 00-.41-.34zm-5.35 5a.49.49 0 00-.15.44l1 5.8-5.21-2.74a.47.47 0 00-.46 0l-5.21 2.74 1-5.8a.49.49 0 00-.15-.44l-4.21-4.1 5.8-.9a.47.47 0 00.38-.27L48 45.53l2.6 5.27a.47.47 0 00.38.27l5.82.85z"/><path d="M76 16.31a.55.55 0 00-.47-.31l-18.84.21a.47.47 0 00-.35.15L45.53 27.13 34.76 16.36a.47.47 0 00-.35-.15L14.51 16a.53.53 0 00-.47.31.51.51 0 00.12.56L34.3 35.72c-.18.46-.33 1-.47 1.45a6.31 6.31 0 01-1.13 2.53 6.31 6.31 0 01-2.53 1.13c-1.35.4-2.75.81-3.39 1.92s-.29 2.49 0 3.84a6.5 6.5 0 01.29 2.81 6.28 6.28 0 01-1.6 2.19c-1 1-2 2.1-2 3.41s1 2.38 2 3.41a6.28 6.28 0 011.6 2.19 6.5 6.5 0 01-.29 2.81c-.32 1.35-.66 2.75 0 3.84s2 1.52 3.39 1.92a6.31 6.31 0 012.53 1.13 6.31 6.31 0 011.13 2.53c.4 1.35.81 2.75 1.92 3.39s2.49.29 3.85 0a6.44 6.44 0 012.8-.29 6.28 6.28 0 012.19 1.6c1 1 2.1 2 3.41 2s2.38-1 3.41-2a6.28 6.28 0 012.19-1.6 6.44 6.44 0 012.8.29c1.36.32 2.76.66 3.85 0s1.52-2 1.92-3.39a6.31 6.31 0 011.13-2.53 6.31 6.31 0 012.53-1.13c1.35-.4 2.75-.81 3.39-1.92s.29-2.49 0-3.84a6.5 6.5 0 01-.29-2.81 6.28 6.28 0 011.6-2.19c1-1 2-2.1 2-3.41s-1-2.38-2-3.41a6.28 6.28 0 01-1.6-2.19 6.5 6.5 0 01.29-2.81c.32-1.35.66-2.75 0-3.84s-2-1.52-3.39-1.92a6.31 6.31 0 01-2.53-1.13 6.31 6.31 0 01-1.13-2.53c-.4-1.35-.81-2.75-1.92-3.39a2.69 2.69 0 00-1.25-.34l16.85-16.58a.49.49 0 00.15-.55zM15.78 17l18.41.2 10.63 10.64L39 33.67h-.18l-.38-.08h-1.88l-.3.07h-.13a3.39 3.39 0 00-.39.18 2.19 2.19 0 00-.48.37 1.14 1.14 0 00-.11.11 4.21 4.21 0 00-.4.52zm45.43 20.45a7 7 0 001.38 3 7 7 0 003 1.38c1.16.34 2.36.7 2.8 1.46s.16 1.89-.13 3.11a7 7 0 00-.28 3.3 6.73 6.73 0 001.84 2.62c.84.89 1.72 1.81 1.72 2.72s-.88 1.83-1.72 2.72a6.73 6.73 0 00-1.84 2.62 7 7 0 00.28 3.3c.29 1.22.57 2.37.13 3.11s-1.64 1.12-2.8 1.46a7 7 0 00-3 1.38 6.88 6.88 0 00-1.38 3c-.34 1.16-.7 2.36-1.46 2.8s-1.89.16-3.11-.13a7 7 0 00-3.3-.28 6.73 6.73 0 00-2.62 1.84c-.89.85-1.81 1.72-2.72 1.72s-1.83-.87-2.72-1.72a6.73 6.73 0 00-2.62-1.84 3.36 3.36 0 00-.9-.11 10.35 10.35 0 00-2.4.39c-1.22.29-2.37.56-3.11.13s-1.12-1.64-1.46-2.8a7 7 0 00-1.38-3 7 7 0 00-3-1.38c-1.16-.34-2.36-.7-2.8-1.46s-.16-1.89.13-3.11a7 7 0 00.28-3.3 6.73 6.73 0 00-1.84-2.62c-.84-.89-1.72-1.81-1.72-2.72s.88-1.83 1.72-2.72a6.73 6.73 0 001.84-2.62 7 7 0 00-.28-3.3c-.29-1.22-.57-2.37-.13-3.11s1.64-1.12 2.8-1.46a7 7 0 003-1.38 6.88 6.88 0 001.38-3 14.5 14.5 0 01.56-1.65 3.55 3.55 0 01.2-.39 2.08 2.08 0 01.19-.29l.14-.15.09-.1a1.15 1.15 0 01.26-.19 1.39 1.39 0 01.53-.18h.06a3.92 3.92 0 01.6 0h.1l.65.09h.14l.66.15.37.08h.09l.36.09h.4l.29.05.32.06h.11a4.89 4.89 0 00.55 0h.46a3.12 3.12 0 00.71-.1 6.73 6.73 0 002.62-1.84c.89-.84 1.81-1.72 2.72-1.72a1.4 1.4 0 01.33 0l.34.11a7.93 7.93 0 012 1.56 6.73 6.73 0 002.62 1.84 3 3 0 00.73.1H54.98l.65-.12h.19l.74-.17c.39-.09.78-.18 1.15-.25a2.94 2.94 0 012 .12c.81.54 1.16 1.74 1.5 2.9zm-3.74-3.88l-1.07.24-1 .22a4.34 4.34 0 01-1.81.07 6.28 6.28 0 01-2.19-1.6 8.24 8.24 0 00-2.32-1.76 2.88 2.88 0 00-1-.24c-1.31 0-2.38 1-3.41 2a6.28 6.28 0 01-2.19 1.6 3.29 3.29 0 01-.58.07H40.84l-.52-.1h-.09l16.63-16.86L74.27 17z"/></svg><svg fill="none" viewBox="0 0 24 24" id="menu_burger_horizontal_icon" xmlns="http://www.w3.org/2000/svg"><g clip-path="url(#oclip0_105_1724)"><path d="M3 6.001h18m-18 6h18m-18 6h18"/></g><defs><clipPath id="oclip0_105_1724"><path fill="#fff" transform="translate(0 .001)" d="M0 0h24v24H0z"/></clipPath></defs></svg><svg viewBox="0 0 24 24" id="message_alt_icon" xmlns="http://www.w3.org/2000/svg"><path d="M18.999 2h-14c-1.103 0-2 .897-2 2v12c0 1.103.897 2 2 2h3.5l3.5 4 3.5-4h3.5c1.103 0 2-.897 2-2V4c0-1.103-.897-2-2-2z"/></svg><svg viewBox="0 0 512 512" id="minus_round_icon" xmlns="http://www.w3.org/2000/svg"><path d="M417.4 224H94.6C77.7 224 64 238.3 64 256s13.7 32 30.6 32h322.8c16.9 0 30.6-14.3 30.6-32s-13.7-32-30.6-32z"/></svg><svg viewBox="0 0 576 512" id="money-bill-wave-solid" xmlns="http://www.w3.org/2000/svg"><!--! Font Awesome Pro 6.2.0 by @fontawesome - https://fontawesome.com License - https://fontawesome.com/license (Commercial License) Copyright 2022 Fonticons, Inc.--><path d="M0 112.5v309.8c0 18 10.1 35 27 41.3 87 32.5 174 10.3 261-11.9 79.8-20.3 159.6-40.7 239.3-18.9 23 6.3 48.7-9.5 48.7-33.4V89.7c0-18-10.1-35-27-41.3-87-32.5-174-10.3-261 11.9-79.8 20.3-159.6 40.6-239.3 18.8C25.6 72.8 0 88.6 0 112.5zM288 352c-44.2 0-80-43-80-96s35.8-96 80-96 80 43 80 96-35.8 96-80 96zm-224 0c35.3 0 64 28.7 64 64H64v-64zm64-208c0 35.3-28.7 64-64 64v-64h64zm384 160v64h-64c0-35.3 28.7-64 64-64zM448 96h64v64c-35.3 0-64-28.7-64-64z"/></svg><svg viewBox="0 0 50 50" id="question_help_icon" xmlns="http://www.w3.org/2000/svg"><circle cx="25" cy="25" fill="none" r="24"/><path d="M23.533 30.407v-1.47c0-1.436.322-2.188 1.075-3.229l2.404-3.3c1.254-1.721 1.684-2.546 1.684-3.766 0-2.044-1.434-3.335-3.479-3.335-2.008 0-3.299 1.219-3.729 3.407-.036.215-.179.323-.395.287l-2.259-.395c-.216-.036-.323-.179-.288-.395.539-3.443 3.014-5.703 6.744-5.703 3.872 0 6.49 2.546 6.49 6.097 0 1.722-.608 2.977-1.828 4.663l-2.403 3.3c-.717.968-.933 1.47-.933 2.689v1.147c0 .215-.143.358-.358.358h-2.367c-.215.004-.358-.14-.358-.355zm-.179 3.444c0-.215.143-.358.359-.358h2.726c.215 0 .358.144.358.358v3.084c0 .216-.144.358-.358.358h-2.726c-.217 0-.359-.143-.359-.358v-3.084z"/></svg><svg viewBox="0 0 512 512" id="search_strong_icon" xmlns="http://www.w3.org/2000/svg"><path d="M344.5 298c15-23.6 23.8-51.6 23.8-81.7 0-84.1-68.1-152.3-152.1-152.3C132.1 64 64 132.2 64 216.3c0 84.1 68.1 152.3 152.1 152.3 30.5 0 58.9-9 82.7-24.4l6.9-4.8L414.3 448l33.7-34.3-108.5-108.6 5-7.1zm-43.1-166.8c22.7 22.7 35.2 52.9 35.2 85s-12.5 62.3-35.2 85c-22.7 22.7-52.9 35.2-85 35.2s-62.3-12.5-85-35.2c-22.7-22.7-35.2-52.9-35.2-85s12.5-62.3 35.2-85c22.7-22.7 52.9-35.2 85-35.2s62.3 12.5 85 35.2z"/></svg><svg viewBox="0 0 640 512" id="tablets_icon" xmlns="http://www.w3.org/2000/svg"><path d="M159.1 191.1C78 191.1 11.6 249.61-.8 325.9c.042 5.6 4.167 10.1 9.165 10.1h303.3c4.998 0 8.996-4.5 8.248-9.25C307.4 250.5 241.1 191.1 159.1 191.1zM311.5 368H8.365c-4.998 0-9.123 4.5-8.248 9.25C12.49 453.5 78.88 512 159.1 512s147.4-58.5 159.8-134.8c1.8-4.7-2.4-9.2-7.4-9.2zm51.4-302.26c-3.502-3.502-9.504-3.252-12.25.75-45.52 62.76-40.52 150.4 15.88 206.9 56.52 56.51 144.2 61.39 206.1 15.88 4.002-2.875 4.252-8.877.75-12.25L362.9 65.74zm230.5-19.13c-56.52-56.51-144.2-61.39-206.1-16-4.002 2.877-4.252 8.877-.75 12.25l211.3 211.4c3.5 3.502 9.504 3.252 12.25-.75 44.7-62.71 39.8-150.41-16.7-206.9z"/></svg></svg>